<?xml version="1.0" encoding="utf-8"?>
<!-- Generator: Adobe Illustrator 24.3.0, SVG Export Plug-In . SVG Version: 6.00 Build 0)  -->
<svg version="1.1" id="Layer_1" xmlns="http://www.w3.org/2000/svg" xmlns:xlink="http://www.w3.org/1999/xlink" x="0px" y="0px"
	 viewBox="0 0 400 400" style="enable-background:new 0 0 400 400;" xml:space="preserve">
<style type="text/css">
	.st0{fill:url(#SVGID_1_);}
	.st1{fill:#168FB1;}
</style>
<g>
	<linearGradient id="SVGID_1_" gradientUnits="userSpaceOnUse" x1="0.4435" y1="199.7946" x2="193.6216" y2="199.7946">
		<stop  offset="0" style="stop-color:#1692B7"/>
		<stop  offset="1" style="stop-color:#78C262"/>
	</linearGradient>
	<path class="st0" d="M183.01,17.23C82.34,17.23,0.44,99.13,0.44,199.8c0,100.67,81.9,182.56,182.56,182.56
		c5.86,0,10.61-4.75,10.61-10.61V27.85C193.62,21.98,188.87,17.23,183.01,17.23z M46.96,286.42c5.63-3.19,11.67-5.52,18.04-6.9
		c18.3-3.97,37.18,0.13,53.16,11.54c1.87,1.34,4.03,1.98,6.16,1.98c3.31,0,6.57-1.55,8.65-4.45c3.41-4.77,2.3-11.4-2.47-14.81
		c-8.04-5.74-16.67-10.04-25.62-12.88c4.63-6.69,7.26-14.47,7.54-22.54c0.2-5.86-4.39-10.77-10.25-10.97
		c-5.85-0.2-10.77,4.39-10.97,10.25c-0.18,5.3-2.48,10.43-6.48,14.43c-1.84,1.84-3.92,3.32-6.2,4.42c-0.21,0.1-0.38,0.24-0.57,0.35
		c-5.81,0.06-11.64,0.67-17.44,1.93c-8.39,1.82-16.35,4.86-23.77,9.03c-9.66-20.68-15.06-43.73-15.06-68.01
		c0-42.37,16.43-80.96,43.23-109.78c-0.1,1.65-0.25,3.3-0.25,4.96c0,5.81,0.64,11.53,1.78,17.11c-0.09,0.59-0.17,1.18-0.16,1.79
		c0.12,10.73-4.48,20.88-12.95,28.58c-3.95,3.59-8.54,6.46-13.63,8.53c-5.43,2.2-8.05,8.4-5.84,13.83c1.67,4.12,5.65,6.62,9.84,6.62
		c1.33,0,2.68-0.25,3.99-0.78c7.41-3.01,14.11-7.21,19.92-12.48c4.91-4.46,8.97-9.48,12.11-14.92c4.27,6.29,9.31,12.2,15.26,17.51
		c2.02,1.8,4.54,2.69,7.05,2.69c2.92,0,5.83-1.2,7.93-3.56c3.9-4.38,3.51-11.09-0.87-14.99c-14.96-13.32-23.2-31.05-23.2-49.92
		c0-8.55,1.69-16.89,5.02-24.81c0.45-1.06,0.66-2.16,0.75-3.25c23.26-16.04,50.89-26.17,80.74-28.12v41.56
		c-14.47-6.24-30.44-7.88-46.18-4.47c-9.16,1.99-17.76,5.58-25.55,10.67c-4.91,3.21-6.28,9.79-3.08,14.69
		c3.21,4.91,9.79,6.28,14.69,3.08c5.61-3.67,11.81-6.26,18.43-7.69c14.48-3.15,29.26-0.41,41.67,7.66v67.72
		c-0.77,0.46-1.51,0.98-2.16,1.65c-14.9,15.2-34.82,23.58-56.1,23.58c-6.62,0-13.11-0.87-19.42-2.48c0.78-3.79,1.19-7.69,1.14-11.66
		c-0.06-5.83-4.8-10.51-10.61-10.51c-0.04,0-0.07,0-0.11,0c-5.86,0.06-10.57,4.86-10.51,10.72c0.09,9.09-3.4,17.63-9.82,24.06
		c-2.92,2.92-6.3,5.25-10.03,6.91c-5.35,2.39-7.75,8.67-5.36,14.02c1.76,3.95,5.64,6.29,9.7,6.29c1.45,0,2.92-0.3,4.32-0.93
		c6.11-2.73,11.62-6.52,16.38-11.29c2.44-2.45,4.6-5.09,6.51-7.88c9,2.61,18.31,3.96,27.8,3.96c21.26,0,41.4-6.67,58.27-18.87v98.88
		c-0.43,0.3-0.86,0.59-1.25,0.96c-9.48,8.95-21.87,13.59-34.9,13.09c-5.92-0.23-11.66-1.52-17.05-3.82
		c-5.39-2.31-11.63,0.19-13.93,5.58c-2.31,5.39,0.19,11.63,5.58,13.93c7.78,3.33,16.04,5.19,24.57,5.52
		c0.93,0.04,1.85,0.06,2.78,0.06c12.17,0,23.85-3.2,34.2-9.12v36.1C119.71,357.35,73.85,328.5,46.96,286.42z"/>
	<g>
		<path class="st1" d="M255.09,38.46h-36.42c-5.86,0-10.61-4.75-10.61-10.61s4.75-10.61,10.61-10.61h36.42
			c5.86,0,10.61,4.75,10.61,10.61S260.95,38.46,255.09,38.46z"/>
	</g>
	<g>
		<path class="st1" d="M325.77,76.67H217.5c-5.86,0-10.61-4.75-10.61-10.61c0-5.86,4.75-10.61,10.61-10.61h108.26
			c5.86,0,10.61,4.75,10.61,10.61C336.38,71.92,331.63,76.67,325.77,76.67z"/>
	</g>
	<g>
		<path class="st1" d="M360.8,114.88H217.5c-5.86,0-10.61-4.75-10.61-10.61c0-5.86,4.75-10.61,10.61-10.61H360.8
			c5.86,0,10.61,4.75,10.61,10.61C371.41,110.13,366.66,114.88,360.8,114.88z"/>
	</g>
	<g>
		<path class="st1" d="M379.9,153.09H217.5c-5.86,0-10.61-4.75-10.61-10.61c0-5.86,4.75-10.61,10.61-10.61h162.4
			c5.86,0,10.61,4.75,10.61,10.61C390.51,148.34,385.76,153.09,379.9,153.09z"/>
	</g>
	<g>
		<path class="st1" d="M388.48,191.3H217.5c-5.86,0-10.61-4.75-10.61-10.61c0-5.86,4.75-10.61,10.61-10.61h170.98
			c5.86,0,10.61,4.75,10.61,10.61C399.09,186.55,394.34,191.3,388.48,191.3z"/>
	</g>
	<g>
		<path class="st1" d="M388.48,229.51H217.5c-5.86,0-10.61-4.75-10.61-10.61c0-5.86,4.75-10.61,10.61-10.61h170.98
			c5.86,0,10.61,4.75,10.61,10.61C399.09,224.76,394.34,229.51,388.48,229.51z"/>
	</g>
	<g>
		<path class="st1" d="M379.9,267.73H217.5c-5.86,0-10.61-4.75-10.61-10.61c0-5.86,4.75-10.61,10.61-10.61h162.4
			c5.86,0,10.61,4.75,10.61,10.61C390.51,262.97,385.76,267.73,379.9,267.73z"/>
	</g>
	<g>
		<path class="st1" d="M360.8,305.94H217.5c-5.86,0-10.61-4.75-10.61-10.61c0-5.86,4.75-10.61,10.61-10.61H360.8
			c5.86,0,10.61,4.75,10.61,10.61C371.41,301.18,366.66,305.94,360.8,305.94z"/>
	</g>
	<g>
		<path class="st1" d="M325.77,344.15H217.5c-5.86,0-10.61-4.75-10.61-10.61c0-5.86,4.75-10.61,10.61-10.61h108.26
			c5.86,0,10.61,4.75,10.61,10.61C336.38,339.4,331.63,344.15,325.77,344.15z"/>
	</g>
	<g>
		<path class="st1" d="M255.09,382.36h-36.42c-5.86,0-10.61-4.75-10.61-10.61c0-5.86,4.75-10.61,10.61-10.61h36.42
			c5.86,0,10.61,4.75,10.61,10.61C265.7,377.61,260.95,382.36,255.09,382.36z"/>
	</g>
</g>
</svg>
